<svg width="672" height="296" viewBox="0 0 672 296" fill="none" xmlns="http://www.w3.org/2000/svg">
<path fill-rule="evenodd" clip-rule="evenodd" d="M585.065 127.876H301.211C284.462 127.876 40.2781 120.824 18.2381 126.996C5.01409 129.642 -4.68324 144.626 2.36876 160.496C10.301 179.892 66.7234 173.72 101.103 173.72C192.786 173.72 284.463 177.246 377.903 177.246L590.357 175.48C572.726 208.98 493.387 263.636 529.529 289.199C551.565 305.948 563.909 282.147 571.841 273.329C603.575 237.184 629.143 205.449 658.231 167.543C693.491 120.819 654.705 125.231 589.471 67.0481C577.128 55.5897 528.643 5.34014 522.477 2.69347C504.846 -6.12426 487.217 7.98521 488.977 26.4961C490.742 49.4175 580.659 119.059 585.065 127.871V127.876Z" fill="black"/>
</svg>
