<svg width="1056" height="1125" viewBox="0 0 1056 1125" fill="none" xmlns="http://www.w3.org/2000/svg">
<path d="M964.181 742.787V0H90.208L0 53.328V1124.37H923.12V1028.82H1055.81C1055.81 1028.83 964.178 955.264 964.178 742.789L964.181 742.787ZM903.479 582.36H745.452V413.24H903.479V582.36ZM516.719 218.12V387.24H340.012V218.12H516.719ZM542.735 218.12H719.455V387.24H542.735V218.12ZM150.921 218.12H313.988V387.24H150.921V218.12ZM150.921 413.253H313.988V582.36H150.921V413.253ZM150.921 608.373H313.988V742.827C313.988 754.957 314.243 766.488 314.707 777.499H150.92L150.921 608.373ZM340.001 742.827V608.373H516.708V742.827C516.708 754.957 516.963 766.488 517.427 777.499H340.76C340.265 766.54 340.005 755.02 340.005 742.827H340.001ZM340.001 582.36V413.24H516.708V582.36H340.001ZM542.721 413.253H719.441V582.36H542.721V413.253ZM903.468 387.223H745.441V218.116H903.468V387.223ZM316.268 803.503C323.133 889.487 344.347 939.329 365.503 968.129H195.863C191.732 964.468 184.821 956.723 177.576 941.665C166.649 918.947 153.863 876.947 151.383 803.505L316.268 803.503ZM400.185 968.129C379.784 949.38 350.748 905.217 342.363 803.503H519.003C525.867 889.487 547.096 939.329 568.237 968.129H400.185ZM602.905 968.129C582.504 949.38 553.468 905.217 545.099 803.503H721.725C728.59 889.487 749.819 939.329 770.96 968.129H602.905ZM543.463 777.489C542.999 766.515 542.713 755.011 542.713 742.817V608.364H719.433V742.817C719.433 754.948 719.688 766.479 720.151 777.489H543.463ZM745.436 742.817V608.364H903.463V768.831C903.463 771.758 903.494 774.607 903.525 777.487H746.179C745.684 766.529 745.429 755.008 745.429 742.815L745.436 742.817ZM862.409 1063.68H60.7027V87.964L90.208 70.5267V777.513C90.208 1011.69 181.853 1028.85 181.853 1028.85H862.453L862.409 1063.68ZM923.112 968.132H805.607C785.205 949.383 756.169 905.22 747.8 803.505H904.2C906.95 867.489 917.466 922.593 935.659 968.132H923.112Z" fill="white"/>
</svg>
